<svg xmlns="http://www.w3.org/2000/svg" viewBox="0 0 64 64" role="img" aria-label="Partly cloudy">
  <circle cx="24" cy="24" r="12" fill="#f4b942"></circle>
  <g stroke="#f4b942" stroke-width="3" stroke-linecap="round">
    <line x1="24" y1="5" x2="24" y2="12"></line>
    <line x1="24" y1="36" x2="24" y2="43"></line>
    <line x1="5" y1="24" x2="12" y2="24"></line>
    <line x1="36" y1="24" x2="43" y2="24"></line>
    <line x1="11" y1="11" x2="16" y2="16"></line>
    <line x1="32" y1="32" x2="37" y2="37"></line>
    <line x1="11" y1="37" x2="16" y2="32"></line>
    <line x1="32" y1="16" x2="37" y2="11"></line>
  </g>
  <path d="M42 48H22c-6.1 0-11-4.5-11-10s4.9-10 11-10c1 0 2 .1 2.9.4C27 22.8 31.2 20 36 20c6.6 0 12 5.1 12.5 11.6 3.2 1.4 5.5 4.5 5.5 8.1 0 4.6-3.8 8.3-8 8.3z" fill="#d9d9d9" stroke="#666" stroke-width="1.5"></path>
</svg>